<?xml version="1.0" encoding="utf-8"?>
<!-- Generator: Adobe Illustrator 16.0.0, SVG Export Plug-In . SVG Version: 6.00 Build 0)  -->
<!DOCTYPE svg PUBLIC "-//W3C//DTD SVG 1.1//EN" "http://www.w3.org/Graphics/SVG/1.1/DTD/svg11.dtd">
<svg version="1.1" id="Badges" xmlns="http://www.w3.org/2000/svg" xmlns:xlink="http://www.w3.org/1999/xlink" x="0px" y="0px"
	 width="200px" height="62.5px" viewBox="469 41.75 200 62.5" enable-background="new 469 41.75 200 62.5" xml:space="preserve">
<g>
	<path d="M662.844,104.156h-187.5c-3.438,0-6.25-2.812-6.25-6.25v-50c0-3.438,2.812-6.25,6.25-6.25h187.5
		c3.438,0,6.25,2.812,6.25,6.25v50C669.094,101.344,666.281,104.156,662.844,104.156z"/>
	<path fill="#FF9900" d="M514.938,86.281c-15.156,7.188-24.531,1.25-30.469-2.5c-0.312-0.156-0.938,0-0.469,0.625
		c2.031,2.5,8.594,8.281,17.188,8.281s13.594-4.688,14.375-5.469C516.031,86.438,515.719,85.969,514.938,86.281z"/>
	<path fill="#FF9900" d="M519.312,83.938c-0.469-0.469-2.5-0.625-3.75-0.469s-3.281,0.938-3.125,1.406
		c0.156,0.156,0.312,0.156,1.094,0c0.938-0.156,3.438-0.469,3.906,0.312c0.469,0.625-0.781,3.906-1.094,4.531
		c-0.156,0.469,0.156,0.625,0.469,0.312c0.469-0.312,1.25-1.25,1.719-2.5C519.312,86.125,519.625,84.25,519.312,83.938z"/>
	<path fill="#FFFFFF" d="M511.188,74.719V62.688c0-2.031-2.031-6.719-9.219-6.719s-11.094,4.531-11.094,8.594l6.094,0.469
		c0,0,1.406-4.062,4.375-4.062c3.125,0,2.969,2.5,2.969,3.125v2.656c-4.062,0.156-13.906,1.25-13.906,9.688
		c0,8.906,11.25,9.375,15,3.594c0.156,0.312,0.312,0.469,0.469,0.625c1.406,1.406,3.125,3.125,3.125,3.125l4.688-4.531
		C513.844,79.094,511.188,77.062,511.188,74.719z M504.312,73.781c0,6.562-6.875,5.625-6.875,1.406c0-3.906,4.062-4.688,6.875-4.688
		V73.781z"/>
	<path fill="#FFFFFF" d="M541.799,83.822v-5.6c0-0.946-0.945-3.128-4.291-3.128c-3.347,0-5.165,2.109-5.165,4l2.838,0.218
		c0,0,0.654-1.891,2.035-1.891c1.455,0,1.383,1.164,1.383,1.455v1.236c-1.892,0.073-6.474,0.582-6.474,4.51
		c0,4.146,5.237,4.364,6.983,1.673c0.071,0.146,0.144,0.219,0.218,0.291c0.653,0.655,1.454,1.455,1.454,1.455l2.182-2.109
		C543.035,85.858,541.799,84.913,541.799,83.822z M538.599,83.386c0,3.055-3.2,2.619-3.2,0.654c0-1.818,1.891-2.182,3.2-2.182
		V83.386z"/>
	<path fill="#FFFFFF" d="M571.33,83.822v-5.6c0-0.946-0.945-3.128-4.291-3.128c-3.347,0-5.165,2.109-5.165,4l2.838,0.218
		c0,0,0.654-1.891,2.035-1.891c1.455,0,1.383,1.164,1.383,1.455v1.236c-1.892,0.073-6.474,0.582-6.474,4.51
		c0,4.146,5.237,4.364,6.983,1.673c0.071,0.146,0.144,0.219,0.218,0.291c0.653,0.655,1.454,1.455,1.454,1.455l2.182-2.109
		C572.566,85.858,571.33,84.913,571.33,83.822z M568.13,83.386c0,3.055-3.2,2.619-3.2,0.654c0-1.818,1.891-2.182,3.2-2.182V83.386z"
		/>
	<g>
		<path fill="#FFFFFF" d="M536.031,54.406h1.875l3.906,10h-1.875L539,61.75h-4.062L534,64.406h-1.875L536.031,54.406z
			 M535.406,60.344h3.125l-1.562-4.375l0,0L535.406,60.344z"/>
		<path fill="#FFFFFF" d="M541.5,57.062h1.719l1.875,5.625l0,0l1.719-5.625h1.719l-2.656,7.344H544L541.5,57.062z"/>
		<path fill="#FFFFFF" d="M555.562,62.844c0,0.156,0,0.312,0,0.469s0.156,0.156,0.312,0.156h0.156h0.156v1.094h-0.156
			c-0.156,0-0.156,0-0.312,0s-0.156,0-0.312,0s-0.156,0-0.312,0c-0.312,0-0.625,0-0.781-0.156s-0.312-0.312-0.469-0.625
			c-0.312,0.312-0.781,0.469-1.25,0.625s-0.938,0.156-1.406,0.156c-0.312,0-0.625,0-0.938-0.156s-0.625-0.156-0.781-0.469
			c-0.156-0.156-0.469-0.469-0.625-0.625c-0.156-0.312-0.156-0.625-0.156-0.938c0-0.469,0.156-0.781,0.312-1.094
			s0.312-0.469,0.625-0.625s0.625-0.312,0.938-0.312s0.625-0.156,0.938-0.156s0.625-0.156,0.781-0.156c0.312,0,0.469,0,0.625-0.156
			s0.312-0.156,0.469-0.312s0.156-0.312,0.156-0.469s0-0.312-0.156-0.469s-0.156-0.156-0.312-0.312s-0.312-0.156-0.469-0.156
			s-0.312,0-0.469,0c-0.469,0-0.781,0.156-1.094,0.312s-0.469,0.469-0.469,0.938H549c0-0.469,0.156-0.781,0.312-1.094
			s0.469-0.625,0.781-0.781s0.625-0.312,1.094-0.469c0.312,0,0.781-0.156,1.25-0.156c0.312,0,0.781,0,1.094,0.156
			c0.312,0,0.625,0.156,0.938,0.312s0.469,0.312,0.625,0.625s0.312,0.625,0.312,0.938v3.906H555.562z M554,60.812
			c-0.312,0.156-0.469,0.312-0.938,0.312c-0.312,0-0.781,0.156-1.094,0.156c-0.156,0-0.312,0-0.469,0.156
			c-0.156,0-0.312,0.156-0.469,0.156c-0.156,0.156-0.156,0.156-0.312,0.312c0,0.156-0.156,0.312-0.156,0.469s0,0.312,0.156,0.469
			s0.156,0.156,0.312,0.312s0.312,0.156,0.469,0.156s0.312,0,0.469,0s0.312,0,0.625,0c0.156,0,0.469-0.156,0.625-0.312
			s0.312-0.312,0.469-0.469s0.156-0.312,0.156-0.625v-1.094H554z"/>
		<path fill="#FFFFFF" d="M557.438,54.406H559v1.562h-1.562V54.406z M557.438,57.062H559v7.344h-1.562V57.062z"/>
		<path fill="#FFFFFF" d="M560.875,54.406h1.562v10h-1.562V54.406z"/>
		<path fill="#FFFFFF" d="M570.25,62.844c0,0.156,0,0.312,0,0.469s0.156,0.156,0.312,0.156h0.156h0.156v1.094h-0.156
			c-0.156,0-0.156,0-0.312,0s-0.156,0-0.312,0s-0.156,0-0.312,0c-0.312,0-0.625,0-0.781-0.156s-0.312-0.312-0.469-0.625
			c-0.312,0.312-0.781,0.469-1.25,0.625s-0.938,0.156-1.406,0.156c-0.312,0-0.625,0-0.938-0.156s-0.625-0.156-0.781-0.469
			c-0.156-0.156-0.469-0.469-0.625-0.625c-0.156-0.312-0.156-0.625-0.156-0.938c0-0.469,0.156-0.781,0.312-1.094
			s0.312-0.469,0.625-0.625s0.625-0.312,0.938-0.312s0.625-0.156,0.938-0.156s0.625-0.156,0.781-0.156c0.312,0,0.469,0,0.625-0.156
			s0.312-0.156,0.469-0.312s0.156-0.312,0.156-0.469s0-0.312-0.156-0.469s-0.156-0.156-0.312-0.312s-0.312-0.156-0.469-0.156
			s-0.312,0-0.469,0c-0.469,0-0.781,0.156-1.094,0.312s-0.469,0.469-0.469,0.938h-1.562c0-0.469,0.156-0.781,0.312-1.094
			s0.469-0.625,0.781-0.781s0.625-0.312,1.094-0.469c0.312,0,0.781-0.156,1.25-0.156c0.312,0,0.781,0,1.094,0.156
			c0.312,0,0.625,0.156,0.938,0.312s0.469,0.312,0.625,0.625s0.312,0.625,0.312,0.938v3.906H570.25z M568.688,60.812
			c-0.312,0.156-0.469,0.312-0.938,0.312c-0.312,0-0.781,0.156-1.094,0.156c-0.156,0-0.312,0-0.469,0.156
			c-0.156,0-0.312,0.156-0.469,0.156c-0.156,0.156-0.156,0.156-0.312,0.312c0,0.156-0.156,0.312-0.156,0.469s0,0.312,0.156,0.469
			s0.156,0.156,0.312,0.312s0.312,0.156,0.469,0.156s0.312,0,0.469,0s0.312,0,0.625,0c0.156,0,0.469-0.156,0.625-0.312
			s0.312-0.312,0.469-0.469s0.156-0.312,0.156-0.625v-1.094H568.688z"/>
		<path fill="#FFFFFF" d="M571.969,54.406h1.562v3.75l0,0c0.156-0.156,0.312-0.312,0.469-0.469s0.312-0.312,0.469-0.312
			c0.156-0.156,0.469-0.156,0.625-0.156s0.469,0,0.625,0c0.625,0,1.094,0.156,1.562,0.312s0.781,0.469,1.094,0.781
			s0.469,0.781,0.625,1.25s0.156,0.938,0.156,1.562c0,0.469,0,0.938-0.156,1.406s-0.312,0.938-0.625,1.25s-0.625,0.625-0.938,0.781
			c-0.469,0.156-0.781,0.312-1.406,0.312c-0.312,0-0.469,0-0.781,0s-0.469-0.156-0.781-0.156c-0.156-0.156-0.469-0.156-0.625-0.312
			s-0.312-0.312-0.469-0.625l0,0v0.938h-1.562V54.406H571.969z M577.594,60.812c0-0.312,0-0.625-0.156-0.938
			s-0.156-0.625-0.312-0.781c-0.156-0.312-0.312-0.469-0.625-0.625s-0.469-0.156-0.938-0.156c-0.625,0-1.25,0.312-1.562,0.781
			s-0.469,1.094-0.469,1.875c0,0.312,0,0.781,0.156,1.094s0.156,0.625,0.469,0.781c0.156,0.156,0.312,0.469,0.625,0.469
			s0.469,0.156,0.938,0.156c0.312,0,0.625,0,0.938-0.156s0.469-0.312,0.625-0.625s0.312-0.469,0.312-0.781
			C577.594,61.438,577.594,61.125,577.594,60.812z"/>
		<path fill="#FFFFFF" d="M580.562,54.406h1.562v10h-1.562V54.406z"/>
		<path fill="#FFFFFF" d="M585.25,61.125c0,0.312,0,0.625,0.156,0.781c0.156,0.312,0.156,0.469,0.312,0.625s0.312,0.312,0.625,0.469
			s0.469,0.156,0.938,0.156s0.781-0.156,1.094-0.312s0.469-0.469,0.625-0.938h1.562c-0.156,0.469-0.156,0.781-0.469,1.094
			c-0.156,0.312-0.469,0.625-0.781,0.781s-0.625,0.312-0.938,0.469s-0.781,0.156-1.094,0.156c-0.625,0-1.094-0.156-1.562-0.312
			s-0.781-0.469-1.094-0.781s-0.469-0.781-0.625-1.25s-0.156-0.938-0.156-1.562c0-0.469,0.156-0.938,0.312-1.406
			s0.469-0.938,0.781-1.25s0.625-0.625,1.094-0.781s0.938-0.312,1.406-0.312c0.625,0,1.094,0.156,1.562,0.312
			c0.469,0.312,0.781,0.625,1.094,0.938c0.312,0.469,0.469,0.781,0.625,1.406c0.156,0.469,0.156,1.094,0.156,1.562h-5.625V61.125z
			 M589,60.188c0-0.312,0-0.469-0.156-0.781c-0.156-0.156-0.156-0.469-0.312-0.625s-0.312-0.312-0.625-0.469
			c-0.156-0.156-0.469-0.156-0.781-0.156s-0.469,0-0.781,0.156c-0.156,0.156-0.469,0.156-0.625,0.469
			c-0.156,0.156-0.312,0.312-0.469,0.625s-0.156,0.469-0.156,0.781H589z"/>
		<path fill="#FFFFFF" d="M599,64.562c-0.625,0-1.094-0.156-1.562-0.312s-0.781-0.469-1.094-0.781s-0.625-0.781-0.781-1.25
			s-0.312-0.938-0.312-1.562s0.156-1.094,0.312-1.562s0.469-0.938,0.781-1.25s0.625-0.625,1.094-0.781s0.938-0.312,1.562-0.312
			s1.094,0.156,1.562,0.312s0.781,0.469,1.094,0.781s0.625,0.781,0.781,1.25s0.312,0.938,0.312,1.562s-0.156,1.094-0.312,1.562
			s-0.469,0.938-0.781,1.25s-0.625,0.625-1.094,0.781C600.094,64.562,599.625,64.562,599,64.562z M599,63.312
			c0.312,0,0.625,0,0.938-0.156s0.469-0.312,0.625-0.625s0.312-0.469,0.312-0.781c0.156-0.312,0.156-0.625,0.156-0.938
			s0-0.625-0.156-0.938s-0.156-0.625-0.312-0.781c-0.156-0.312-0.312-0.469-0.625-0.625s-0.625-0.156-0.938-0.156
			s-0.625,0-0.938,0.156s-0.469,0.312-0.625,0.625s-0.312,0.469-0.312,0.781c-0.156,0.312-0.156,0.625-0.156,0.938
			s0,0.625,0.156,0.938s0.156,0.625,0.312,0.781c0.156,0.312,0.312,0.469,0.625,0.625S598.688,63.312,599,63.312z"/>
		<path fill="#FFFFFF" d="M604,57.062h1.562v1.094l0,0c0.312-0.469,0.625-0.781,0.938-0.938s0.781-0.312,1.25-0.312
			c0.781,0,1.406,0.156,1.875,0.625s0.625,1.094,0.625,1.875v5h-1.562v-4.531c0-0.625-0.156-0.938-0.312-1.25
			s-0.625-0.312-1.094-0.312c-0.312,0-0.469,0-0.781,0.156c-0.156,0.156-0.469,0.156-0.625,0.469
			c-0.156,0.156-0.312,0.312-0.312,0.625c-0.156,0.312-0.156,0.469-0.156,0.781v4.219h-1.562v-7.5H604z"/>
	</g>
	<path fill="#FFFFFF" d="M574.156,77.688v-1.719c0-0.312,0.156-0.469,0.469-0.469h7.344c0.312,0,0.469,0.156,0.469,0.469v1.406
		c0,0.312-0.156,0.469-0.625,1.094l-3.75,5.469c1.406,0,2.969,0.156,4.219,0.938c0.312,0.156,0.312,0.469,0.469,0.625v1.719
		c0,0.312-0.312,0.469-0.469,0.312c-2.344-1.25-5.312-1.25-7.812,0c-0.312,0.156-0.469-0.156-0.469-0.312V85.5
		c0-0.312,0-0.781,0.312-1.094L578.688,78h-3.906C574.312,78,574.156,77.844,574.156,77.688z"/>
	<path fill="#FFFFFF" d="M547.125,88h-2.188c-0.156,0-0.312-0.156-0.469-0.312V76.125c0-0.156,0.156-0.469,0.469-0.469h2.031
		c0.156,0,0.469,0.156,0.469,0.312v1.562l0,0c0.469-1.406,1.562-2.188,2.969-2.188s2.344,0.625,2.969,2.188
		c0.469-1.406,1.719-2.188,3.125-2.188c0.938,0,2.031,0.312,2.656,1.25c0.781,0.938,0.625,2.344,0.625,3.594v7.344
		c0,0.156-0.156,0.469-0.469,0.469h-2.188c-0.156,0-0.469-0.156-0.469-0.469v-6.094c0-0.469,0-1.719,0-2.188
		c-0.156-0.781-0.625-0.938-1.25-0.938c-0.469,0-1.094,0.312-1.406,0.938s-0.156,1.562-0.156,2.188v6.094
		c0,0.156-0.156,0.469-0.469,0.469h-2.188c-0.156,0-0.469-0.156-0.469-0.469v-6.094c0-1.25,0.156-3.125-1.406-3.125
		s-1.562,1.875-1.562,3.125v6.094C547.594,87.844,547.438,88,547.125,88z"/>
	<path fill="#FFFFFF" d="M588.688,75.344c3.281,0,5.156,2.812,5.156,6.562c0,3.594-2.031,6.25-5.156,6.25c-3.281,0-5-2.812-5-6.406
		S585.406,75.344,588.688,75.344z M588.688,77.688c-1.719,0-1.719,2.188-1.719,3.594s0,4.375,1.719,4.375s1.875-2.5,1.875-3.906
		c0-0.938,0-2.188-0.312-3.125C589.938,78,589.469,77.688,588.688,77.688z"/>
	<path fill="#FFFFFF" d="M598.219,88h-2.188c-0.156,0-0.469-0.156-0.469-0.469V75.969c0-0.156,0.156-0.312,0.469-0.312h2.031
		c0.156,0,0.312,0.156,0.469,0.312v1.719l0,0c0.625-1.562,1.562-2.344,3.125-2.344c0.938,0,2.031,0.312,2.656,1.406
		c0.625,0.938,0.625,2.5,0.625,3.594v7.188c0,0.156-0.156,0.312-0.469,0.312h-2.188c-0.156,0-0.312-0.156-0.469-0.312v-6.25
		c0-1.25,0.156-3.125-1.406-3.125c-0.469,0-1.094,0.312-1.25,0.938c-0.312,0.781-0.312,1.406-0.312,2.188v6.25
		C598.688,87.844,598.375,88,598.219,88z"/>
	<ellipse fill="#FFFFFF" cx="607.281" cy="87.062" rx="1.094" ry="1.094"/>
	<path fill="#FFFFFF" d="M629.938,88c-0.156,0-0.469-0.156-0.469-0.469V75.969c0-0.156,0.156-0.312,0.469-0.312h0.781
		c0.156,0,0.469,0.156,0.469,0.312v1.719c0.625-1.406,1.719-2.344,3.125-2.344h0.156h0.156c1.406,0,2.5,1.094,2.969,2.656
		c0.625-1.562,1.719-2.656,3.281-2.656h0.156h0.156c1.094,0,2.188,0.781,2.656,1.719c0.469,1.094,0.469,2.344,0.469,3.594v6.875
		c0,0.156-0.156,0.469-0.469,0.469h-0.938c-0.156,0-0.312-0.156-0.469-0.312v-7.031c0-0.781,0-1.719-0.312-2.5
		s-0.938-1.25-1.719-1.25s-1.562,0.625-2.031,1.406c-0.625,0.938-0.625,1.875-0.625,3.125v6.25c0,0.156-0.156,0.312-0.469,0.312
		h-0.938c-0.156,0-0.469-0.156-0.469-0.469v-7.344c0-0.625,0-1.406-0.312-2.031s-0.938-1.094-1.719-1.25
		c-0.781,0-1.406,0.625-1.875,1.25c-0.469,0.781-0.625,1.719-0.625,2.812v6.719c0,0.156-0.156,0.469-0.469,0.469h-0.938V88z"/>
	<path fill="#FFFFFF" d="M623.219,88.156c-3.125,0-4.688-3.281-4.688-6.562c0-3.438,1.719-6.406,4.844-6.406h0.156h0.156
		c3.125,0,4.688,3.125,4.688,6.406c0,3.438-1.719,6.406-5,6.406h-0.156V88.156z M623.375,86.594c1.094,0,1.875-0.625,2.344-1.719
		c0.469-0.938,0.469-2.031,0.469-3.125s-0.156-2.344-0.625-3.438c-0.469-0.938-1.406-1.406-2.188-1.406
		c-0.938,0-1.875,0.781-2.344,1.719s-0.469,2.031-0.469,3.125s0.156,2.344,0.625,3.438
		C621.656,85.969,622.438,86.594,623.375,86.594z"/>
	<path fill="#FFFFFF" d="M613.219,86.594c1.406,0,2.188-1.25,2.5-2.656c0-0.156,0.156-0.312,0.469-0.312h0.938
		c0.156,0,0.469,0.156,0.469,0.312c-0.469,2.5-2.031,4.219-4.062,4.219h-0.156h-0.156c-3.125,0-4.531-3.125-4.531-6.406
		c0-3.125,1.406-6.406,4.531-6.406h0.156h0.156c2.188,0,3.75,1.719,4.062,4.219c0,0.156-0.156,0.312-0.312,0.312h-0.938
		c-0.156,0-0.312-0.156-0.312-0.469c-0.312-1.406-1.094-2.5-2.344-2.656c-2.188,0-2.812,2.656-2.812,4.688
		C610.562,83.625,611.031,86.438,613.219,86.594z"/>
</g>
</svg>
