<?xml version="1.0" encoding="utf-8"?>
<!-- Generator: Adobe Illustrator 16.0.0, SVG Export Plug-In . SVG Version: 6.00 Build 0)  -->
<!DOCTYPE svg PUBLIC "-//W3C//DTD SVG 1.1//EN" "http://www.w3.org/Graphics/SVG/1.1/DTD/svg11.dtd">
<svg version="1.1" id="Layer_1" xmlns="http://www.w3.org/2000/svg" xmlns:xlink="http://www.w3.org/1999/xlink" x="0px" y="0px"
	 width="157.88px" height="171.334px" viewBox="20.976 12 157.88 171.334" enable-background="new 20.976 12 157.88 171.334"
	 xml:space="preserve">
<g id="surface1">
	<path fill="#FFB300" d="M165.006,162.5c-17.512,12.924-43.75,20.834-65.006,20.834c-30.42,0-57.503-12.078-78.336-30.828
		c-1.66-1.676,0-3.336,1.676-2.506c22.494,12.924,47.917,20.41,76.237,20.41c19.173,0,43.343-4.166,62.923-12.5
		C165.414,157.08,167.92,160.416,165.006,162.5z M171.256,153.744c-2.082-2.914-14.582-1.238-20.002-0.83
		c-1.678,0-2.084-1.254-0.424-2.49c9.586-7.098,25.83-5.014,27.506-2.508c1.66,2.508-0.422,18.75-9.586,26.254
		c-1.254,1.254-2.914,0.406-2.084-0.83C168.75,168.326,173.34,156.674,171.256,153.744z"/>
	<path fill="#FFFFFF" d="M153.744,124.17c-4.168-5.42-8.334-10.01-8.334-20.426V69.173c0-14.583,0-27.507-10.416-37.5
		c-8.334-7.927-22.07-10.84-32.91-10.84c-22.917,0-42.92,9.163-47.917,34.993c-0.423,2.93,1.66,4.167,3.337,4.59l21.24,2.507
		c2.083,0,3.336-2.083,3.76-4.167c1.66-8.756,8.74-12.923,17.073-12.923c4.589,0,13.347,2.506,13.347,12.5v12.5
		c-13.347,0-27.507,0-39.177,4.997c-13.753,5.843-23.323,17.92-23.323,35.84c0,22.916,14.16,34.164,32.487,34.164
		c15.43,0,24.594-3.744,36.67-15.838c3.76,5.844,5.42,9.164,12.5,15.414c1.676,0.846,3.76,0.846,4.996-0.406
		c4.168-3.76,12.094-10.84,16.668-14.584C155.826,128.744,155.42,126.254,153.744,124.17z M112.5,92.09
		c0,8.333-0.424,28.744-20.833,28.744c-12.5,0-12.5-12.5-12.5-12.5c0-18.75,17.497-20.834,33.333-20.834V92.09z"/>
</g>
</svg>
