<?xml version="1.0" encoding="utf-8"?>
<!-- Generator: Adobe Illustrator 16.0.0, SVG Export Plug-In . SVG Version: 6.00 Build 0)  -->
<!DOCTYPE svg PUBLIC "-//W3C//DTD SVG 1.1//EN" "http://www.w3.org/Graphics/SVG/1.1/DTD/svg11.dtd">
<svg version="1.1" id="Layer_1" xmlns="http://www.w3.org/2000/svg" xmlns:xlink="http://www.w3.org/1999/xlink" x="0px" y="0px"
	 width="169px" height="83px" viewBox="0 0 169 83" enable-background="new 0 0 169 83" xml:space="preserve">
<g>
	<path fill="#FFFFFF" d="M21.6,46.73c1.93-4.94,5.61-6.58,9.35-6.58c2.82,0,4.57,0.75,5.83,2.07c1.37,1.5,1.93,3.46,1.93,7.22v14.69
		c0,3.06,1.15,3.95,4.19,3.95v1.16c-1.29-0.05-4.19-0.21-6.61-0.21s-5.02,0.16-6.18,0.21v-1.16c2.66,0,3.65-0.89,3.65-3.95v-15.9
		c0-3.41-0.51-6.34-4.46-6.34c-4.51,0-7.71,4.14-7.71,9.96v12.27c0,3.06,0.99,3.95,3.63,3.95v1.16c-1.15-0.05-3.73-0.21-6.15-0.21
		s-5.34,0.16-6.61,0.21v-1.16c3.03,0,4.19-0.89,4.19-3.95V32.77c0-3.3-0.99-4.83-4.19-4.83v-1.15c1.15,0.11,2.31,0.16,3.41,0.16
		c2.15,0,4.14-0.21,5.72-0.78V46.73z"/>
	<path fill="#FFFFFF" d="M71.53,55.11c0,10.55-5.51,14.9-12.49,14.9s-12.49-4.35-12.49-14.9c0-10.58,5.51-14.96,12.49-14.96
		S71.53,44.53,71.53,55.11z M56.63,31.56c0,1.77-1.48,3.2-3.2,3.2c-1.75,0-3.2-1.42-3.2-3.2c0-1.69,1.45-3.2,3.2-3.2
		C55.15,28.36,56.63,29.87,56.63,31.56z M51.9,55.11c0,9.83,2.98,13.8,7.14,13.8c4.19,0,7.14-3.97,7.14-13.8
		c0-9.86-2.95-13.86-7.14-13.86C54.88,41.25,51.9,45.25,51.9,55.11z M68.28,31.56c0,1.77-1.48,3.2-3.2,3.2
		c-1.75,0-3.17-1.42-3.17-3.2c0-1.69,1.42-3.2,3.17-3.2C66.8,28.36,68.28,29.87,68.28,31.56z"/>
	<path fill="#FFFFFF" d="M84.08,46.73c1.93-4.94,5.61-6.58,9.35-6.58c2.82,0,4.57,0.75,5.83,2.07c1.37,1.5,1.93,3.46,1.93,7.22
		v14.69c0,3.06,1.15,3.95,4.19,3.95v1.16c-1.29-0.05-4.19-0.21-6.61-0.21c-2.42,0-5.02,0.16-6.18,0.21v-1.16
		c2.66,0,3.65-0.89,3.65-3.95v-15.9c0-3.41-0.51-6.34-4.46-6.34c-4.51,0-7.71,4.14-7.71,9.96v12.27c0,3.06,0.99,3.95,3.63,3.95v1.16
		c-1.16-0.05-3.73-0.21-6.15-0.21c-2.42,0-5.34,0.16-6.61,0.21v-1.16c3.04,0,4.19-0.89,4.19-3.95V32.77c0-3.3-0.99-4.83-4.19-4.83
		v-1.15c1.16,0.11,2.31,0.16,3.41,0.16c2.15,0,4.14-0.21,5.72-0.78V46.73z"/>
	<path fill="#FFFFFF" d="M131.91,62.63c-1.21,3.68-4.83,7.38-10.29,7.38c-7.98,0-12.65-5.83-12.65-14.26
		c0-9.67,4.89-15.6,12.43-15.6c6.45,0,10.29,3.79,10.29,12.09h-17.19c-0.13,1.05-0.19,2.31-0.19,3.52c0,7.55,4.19,11.95,8.41,11.95
		c3.3,0,6.18-1.4,8.08-5.51L131.91,62.63z M114.43,51.19h11.98c0.19-5.37-1.53-9.99-5.21-9.99
		C117.92,41.2,115.02,44.26,114.43,51.19z"/>
	<path fill="#FFFFFF" d="M158.27,44.47c0,1.88-1.21,3.46-3.14,3.46c-1.53,0-2.93-1.02-2.93-2.85c0-1.37,0.89-2.36,1.88-2.98
		c-0.27-0.38-0.67-0.54-1.15-0.54c-4.62,0-7.65,6.26-7.65,10.34v11.65c0,3.57,2.2,4.51,5.83,4.51v1.16
		c-1.69-0.05-5.05-0.21-8.46-0.21c-2.53,0-5.24,0.16-6.5,0.21v-1.16c3.04,0,4.19-0.89,4.19-3.95V46.92c0-3.3-0.99-4.86-4.19-4.86
		V40.9c1.16,0.11,2.31,0.16,3.41,0.16c2.15,0,4.13-0.21,5.72-0.75v6.88c1.16-3.2,4.14-7.04,7.98-7.04
		C156.22,40.15,158.27,42.11,158.27,44.47z"/>
</g>
<polygon fill="#FFFFFF" points="166,80 3,80 3,0 0,0 0,83 169,83 169,0 166,0 "/>
</svg>
