<?xml version="1.0" encoding="utf-8"?>
<!-- Generator: Adobe Illustrator 16.0.0, SVG Export Plug-In . SVG Version: 6.00 Build 0)  -->
<!DOCTYPE svg PUBLIC "-//W3C//DTD SVG 1.1//EN" "http://www.w3.org/Graphics/SVG/1.1/DTD/svg11.dtd">
<svg version="1.1" id="Layer_1" xmlns="http://www.w3.org/2000/svg" xmlns:xlink="http://www.w3.org/1999/xlink" x="0px" y="0px"
	 width="169px" height="83px" viewBox="0 0 169 83" enable-background="new 0 0 169 83" xml:space="preserve">
<polygon fill="#FFFFFF" points="166,80 3,80 3,0 0,0 0,83 169,83 169,0 166,0 "/>
<g>
	<path fill="#FFFFFF" d="M41.6,69.23H31.41v-0.73c2.32-0.67,2.44-1.83,2.44-4.94V50.56c0-4.39-2.07-6.95-6.34-6.95
		c-3.05,0-5.31,2.81-6.28,4.88v15.07c0,3.36,0.31,4.33,2.5,4.88v0.79H13.41v-0.79c2.32-0.67,2.44-1.77,2.44-4.88V30.12
		c0-2.14-0.55-2.87-3.05-3.29v-0.79l8.42-1.83v23.18c0.92-3.48,5.49-6.89,9.46-6.89c5,0,8.42,2.5,8.42,9.82v13.24
		c0,3.36,0.37,4.39,2.5,4.94V69.23z"/>
	<path fill="#FFFFFF" d="M73.32,55.13c0,7.99-4.7,14.64-14.03,14.64c-9.27,0-14.09-6.65-14.09-14.64c0-8.05,4.82-14.64,14.09-14.64
		C68.62,40.49,73.32,47.08,73.32,55.13z M67.04,55.13c0-11.04-3.11-13.85-7.75-13.85c-4.7,0-7.87,2.81-7.87,13.85
		c0,11.04,3.17,13.85,7.87,13.85C63.92,68.98,67.04,66.17,67.04,55.13z M54.47,34.51c1.59,0,2.87-1.28,2.87-2.87
		c0-1.59-1.28-2.87-2.87-2.87s-2.81,1.28-2.81,2.87C51.66,33.23,52.88,34.51,54.47,34.51z M64.23,34.51c1.53,0,2.81-1.28,2.81-2.87
		c0-1.59-1.28-2.87-2.81-2.87c-1.59,0-2.81,1.28-2.81,2.87C61.42,33.23,62.64,34.51,64.23,34.51z"/>
	<path fill="#FFFFFF" d="M105.59,69.23H95.4v-0.73c2.32-0.67,2.44-1.83,2.44-4.94V50.56c0-4.39-2.07-6.95-6.34-6.95
		c-3.05,0-5.31,2.81-6.28,4.88v15.07c0,3.36,0.31,4.33,2.5,4.88v0.79H77.4v-0.79c2.32-0.67,2.44-1.77,2.44-4.88V30.12
		c0-2.14-0.55-2.87-3.05-3.29v-0.79l8.42-1.83v23.18c0.92-3.48,5.49-6.89,9.46-6.89c5,0,8.42,2.5,8.42,9.82v13.24
		c0,3.36,0.37,4.39,2.5,4.94V69.23z"/>
	<path fill="#FFFFFF" d="M133.22,62.03c-0.67,2.87-4.03,7.75-11.22,7.75c-7.62,0-13.05-6.34-13.05-14.4
		c0-9.03,5.73-14.89,13.3-14.89c7.08,0,11.96,4.51,11.96,14.09h-19.52c0.24,8.24,3.9,11.53,8.72,12.02
		c3.66,0.37,7.99-1.89,9.09-4.88L133.22,62.03z M128.95,53.79c0-8.91-3.97-12.51-6.89-12.51c-3.48,0-7.38,4.82-7.38,12.51H128.95z"
		/>
	<path fill="#FFFFFF" d="M157.62,41.83c1.22,1.46,1.04,3.54-0.43,4.76c-1.4,1.16-3.48,1.04-4.76-0.43
		c-0.55-0.67-0.85-1.53-0.67-2.32c0.18-1.04-3.9,0.43-5.8,4.51v15.19c0,3.42,0.31,4.33,2.5,4.88v0.79h-10.31v-0.79
		c2.32-0.67,2.44-1.71,2.44-4.88v-16.9c0-2.13-0.55-2.99-3.05-3.66v-0.73l8.42-1.77v6.41c2.26-4.15,5.73-5.92,8.17-6.22
		C155.24,40.55,156.76,40.86,157.62,41.83z"/>
</g>
</svg>
