<?xml version="1.0" encoding="utf-8"?>
<!-- Generator: Adobe Illustrator 16.0.0, SVG Export Plug-In . SVG Version: 6.00 Build 0)  -->
<!DOCTYPE svg PUBLIC "-//W3C//DTD SVG 1.1//EN" "http://www.w3.org/Graphics/SVG/1.1/DTD/svg11.dtd">
<svg version="1.1" id="Layer_1" xmlns="http://www.w3.org/2000/svg" xmlns:xlink="http://www.w3.org/1999/xlink" x="0px" y="0px"
	 width="169px" height="169px" viewBox="0 0 169 169" enable-background="new 0 0 169 169" xml:space="preserve">
<rect fill="#FFFFFF" width="169" height="169"/>
<g>
	<path d="M169,169H0V0h169V169z M3,166h163V3H3V166z"/>
</g>
<g>
	<path d="M41.23,155.221H31.042v-0.732c2.318-0.671,2.44-1.83,2.44-4.941v-12.994c0-4.392-2.074-6.954-6.344-6.954
		c-3.05,0-5.308,2.806-6.284,4.88v15.068c0,3.355,0.305,4.332,2.501,4.881v0.793h-10.31v-0.793c2.318-0.671,2.44-1.77,2.44-4.881
		v-33.43c0-2.136-0.549-2.867-3.05-3.295v-0.793l8.418-1.83v23.182c0.915-3.477,5.491-6.894,9.456-6.894
		c5.002,0,8.419,2.501,8.419,9.821v13.238c0,3.355,0.365,4.393,2.501,4.941V155.221z"/>
	<path d="M72.95,141.129c0,7.991-4.697,14.641-14.031,14.641c-9.272,0-14.092-6.649-14.092-14.641
		c0-8.053,4.819-14.642,14.092-14.642C68.253,126.487,72.95,133.076,72.95,141.129z M66.667,141.129
		c0-11.042-3.111-13.848-7.748-13.848c-4.697,0-7.869,2.806-7.869,13.848c0,11.041,3.172,13.848,7.869,13.848
		C63.556,154.977,66.667,152.17,66.667,141.129z M54.1,120.51c1.586,0,2.867-1.281,2.867-2.868c0-1.586-1.281-2.867-2.867-2.867
		s-2.807,1.281-2.807,2.867C51.293,119.229,52.514,120.51,54.1,120.51z M63.86,120.51c1.525,0,2.807-1.281,2.807-2.868
		c0-1.586-1.281-2.867-2.807-2.867c-1.586,0-2.807,1.281-2.807,2.867C61.054,119.229,62.274,120.51,63.86,120.51z"/>
	<path d="M105.219,155.221H95.03v-0.732c2.318-0.671,2.44-1.83,2.44-4.941v-12.994c0-4.392-2.074-6.954-6.345-6.954
		c-3.05,0-5.307,2.806-6.283,4.88v15.068c0,3.355,0.306,4.332,2.501,4.881v0.793h-10.31v-0.793c2.318-0.671,2.44-1.77,2.44-4.881
		v-33.43c0-2.136-0.549-2.867-3.051-3.295v-0.793l8.419-1.83v23.182c0.915-3.477,5.49-6.894,9.456-6.894
		c5.002,0,8.419,2.501,8.419,9.821v13.238c0,3.355,0.365,4.393,2.501,4.941V155.221z"/>
	<path d="M132.85,148.021c-0.671,2.867-4.025,7.748-11.225,7.748c-7.625,0-13.055-6.344-13.055-14.396
		c0-9.029,5.734-14.886,13.299-14.886c7.076,0,11.957,4.515,11.957,14.093h-19.521c0.244,8.235,3.904,11.529,8.724,12.018
		c3.66,0.365,7.991-1.891,9.09-4.881L132.85,148.021z M128.58,139.787c0-8.907-3.966-12.506-6.894-12.506
		c-3.478,0-7.382,4.818-7.382,12.506H128.58z"/>
	<path d="M157.25,127.83c1.22,1.464,1.037,3.537-0.428,4.758c-1.402,1.159-3.477,1.037-4.758-0.427
		c-0.549-0.671-0.854-1.525-0.671-2.318c0.183-1.037-3.904,0.427-5.796,4.515v15.189c0,3.416,0.306,4.332,2.501,4.881v0.793h-10.31
		v-0.793c2.318-0.671,2.44-1.708,2.44-4.881v-16.898c0-2.135-0.549-2.988-3.05-3.66v-0.731l8.418-1.77v6.405
		c2.258-4.148,5.734-5.917,8.175-6.223C154.871,126.549,156.396,126.854,157.25,127.83z"/>
</g>
</svg>
